<svg xmlns="http://www.w3.org/2000/svg" viewBox="0 0 104.66 104.66"><defs><style>.cls-1{fill:#d73327;}.cls-2{fill:#fff;}</style></defs><g id="Layer_2" data-name="Layer 2"><g id="Layer_1-2" data-name="Layer 1"><circle class="cls-1" cx="52.33" cy="52.33" r="52.33"/><path class="cls-2" d="M51.31,73.4c.5,3,.66,3.13,3.68,2.95,2.18-.13,2.18-.13,3.36.58-1.57.88-3.56-.44-5,1,.9.73,2.53.49,2.82,2.22L49.66,77.6l-2.24.16,0-.35c2-1.18,2.36-1.94,1.91-4.43-.13-.75-.26-1.51-.44-2.25-.26-1-.39-1.93-1.9-2-.68,0-1.37-1-2-1.51-.5-.42-.9-1-1.46-1.3a6.51,6.51,0,0,1-3.26-2.63,18.72,18.72,0,0,0-2.83-3.41c-.68-.69-.45-1.27-.36-1.92a8.67,8.67,0,0,1-.11-1.51A3.21,3.21,0,0,0,35.1,54c-.27,0-.54-.07-.82-.11l.23-.29c-.41-.38-.77-1-1.25-1.09-1-.24-1.23-.65-.64-1.46-1.88-1.21-2-1.43-.87-2.18-.36-.72-1.53-1.38-.15-2.22,0,0,0-.29-.1-.43-.39-.93,0-1.27,1-1.21a7,7,0,0,1-.79-1.92c0-.39.48-.83.76-1.25l.34.13c-.31-.6-.63-1.19-.91-1.8-.38-.86,0-1.29.92-1.26-.27-.73-.51-1.35-.73-2a1.38,1.38,0,0,1,.05-.48h1.08L32.7,34,34,34.1c.44-1-1.27-2.67,1-3.12l.46-2.26,1.18.79.5-1.91,1,.74a8.84,8.84,0,0,1,1.64-1.9c.42-.28,1.2,0,1.82,0l.06.4a4.71,4.71,0,0,1,.33-.42,7,7,0,0,1,.54-.46c.1.38.2.63.24.89.27,1.77.57,3.54.78,5.33a25.45,25.45,0,0,1,.27,4.27,2.85,2.85,0,0,0,1.09,2.63,11.66,11.66,0,0,0,6.29,2.13,1.72,1.72,0,0,0,.68-.18l4.44-1.74c.24-.09.57-.18.67-.38a24.86,24.86,0,0,0,2.49-4.76c1.29-4.35,4.66-6.16,8.37-7.58a2.79,2.79,0,0,1-.61-.72,1.31,1.31,0,0,1,0-1.06,1.31,1.31,0,0,1,1-.34,9.11,9.11,0,0,1,1.17.35,4.11,4.11,0,0,0,.91,0v.79c.1.07.15.13.21.14.22,0,.63,0,.65,0,.3,1.11,1.69,1.61,1.6,3,0,.51.62,1.07,1.06,1.76-.52,0-.83,0-1.13,0-1-.08-1.52.13-1.3,1.41.31,1.74-.93,2.63-2.83,2.07A8.87,8.87,0,0,0,69,36.14c1.91,3.75,1.39,7.66.81,11.57A13.72,13.72,0,0,1,67.32,54a3.86,3.86,0,0,0-.47,1.46c-.79,3.76-2.74,6.44-6.67,7.39a6.09,6.09,0,0,0-4.4,3.39,4.94,4.94,0,0,1-3.33,2.38,7,7,0,0,0-1.13.57c-1,.51-.81,1.33-.58,2.16.18.68.4,1.36.6,2Z"/><path class="cls-2" d="M51.34,73.43c-.12-.74-.26-1.48-.35-2.22a11.43,11.43,0,0,1,0-1.31l.36-.05c.2.66.39,1.32.6,2,.6,1.84.6,1.78,2.53,1.73,1.29,0,2.59.15,3.89.25.09,0,.18.14.26.55-.81,0-1.63,0-2.44,0s-1.84,0-2.5.95c-.44.65-1.37.36-1.73-.42-.23-.5-.43-1-.64-1.5Z"/></g></g></svg>