<svg xmlns="http://www.w3.org/2000/svg" viewBox="0 0 68 68"><defs><style>.cls-1{fill:#fff;}</style></defs><g id="Layer_2" data-name="Layer 2"><g id="Layer_1-2" data-name="Layer 1"><path class="cls-1" d="M68,34A34,34,0,1,1,33.94,0,33.91,33.91,0,0,1,68,34ZM14.46,20.82c.38.4.55.62.76.8C21,26.4,26.81,31.15,32.57,36c1.18,1,2.09.72,3.16-.17,5.68-4.73,11.39-9.41,17.08-14.11a7.72,7.72,0,0,0,.71-.86Zm39,26.33.15-.36L38.85,34.92c-3.27,4.56-6.65,3.8-9.78,0L13.94,47.15ZM14.3,22.87v22L27.79,34Zm39.35,22V23L40.23,34.05Z"/></g></g></svg>