<svg xmlns="http://www.w3.org/2000/svg" viewBox="0 0 150 150"><defs><style>.cls-1{fill:#d73327;}.cls-2{fill:#fff;}</style></defs><g id="Layer_2" data-name="Layer 2"><g id="Layer_1-2" data-name="Layer 1"><circle class="cls-1" cx="75" cy="75" r="75"/><path class="cls-2" d="M61.64,86.06l1.66-.79-1.69.2-.06-.14,1-.44L62,84.61l1.19-.46L62.66,84a8.09,8.09,0,0,0,.75-1.2,8,8,0,0,0,.24-1.48,4.57,4.57,0,0,0-1.25.3c-2.83,1.61-5.68,3.19-8.43,4.92-3,1.87-5.8,4-8.75,5.83a18.68,18.68,0,0,1-3.13,1.28l-.24-.37,1.41-3-1.08.09,1.74-1.23L43.87,89l-1.08.36c.14-.78.14-.78,2.63-2.5l-.54-.3,1.29-.7H45l3.68-1.62,0-.15L47,84.28l-.06-.17,1.51-.64v-.11l-1.09.12,0-.11,2.51-1.09,0-.19-2.2.38,3.87-2.23L50,80.37l0-.13,1.24-.41,0-.12-1.88.19,0-.11,1.21-.43,0-.18-1.63.14L50,78.7,47.8,79l.85-.48-1.37-.33,1.58-.48-4.44-.55,0-.39,3-.31v-.09H43l0-.24,2.16-.45-2.35-.43v-.13H45l0-.2-4.12-.58.56-.33-2-.45.65-.26L37.43,72l1.24-.23-2.24-.39.85-.37-1.14-.2c.21-1.3-.91-.94-1.79-1.23a6.37,6.37,0,0,1,4.16-.68c3.79.7,7.56,1.6,11.34,2.36,3.2.64,6.4,1.4,9.63,1.74,2.61.27,5.33.27,7.76-1.57l-4.42.4-.06-.56,2-.21-.47-.31,1.38-1-1.4-.29v-.22l2.28-.13L65,68.81v-.22l2.17-.14L65.65,68v-.16l1.88-.13-1.67-.75,1.53-.11-.12-.32,1.29-.32-1.15-.58,0-.28,2.75.24-2.08-.87,2.75-.47L70,63.33l2.67.77.07-.12-1.52-1.13.11-.2,2.76,1.25.08-.16-2.47-1.82.06-.21L73.9,62l-1.26-1.1,1.07.11-1-.66.76,0,.19-.18-.92-.43.3-.49,2.56.91-1.5-1.34.13-.2L77,60.43l-.7-1,.08-.13,1.37,1,.18-.19c-1-.84-1.92-1.65-2.83-2.53a3.55,3.55,0,0,1-.52-1.05l.49-.36,6.41,6.23c-1.41-2.65-3.82-4.33-5.94-6.32,3,.84,4.58,3.4,6.71,5.31-1.3-2.36-3.37-4-5.4-5.77a11.36,11.36,0,0,1,1.86.77,9.46,9.46,0,0,1,2,1.6c1.49,1.63,2.89,3.33,4.36,5a1.62,1.62,0,0,0,1.1.45A53.23,53.23,0,0,1,108.89,67a4.21,4.21,0,0,1,1,.44,16.09,16.09,0,0,0,3.87,2c2.24.91,2.44,3.36.9,5.2-3.58,4.3-8.68,5.83-13.57,7.78a17.68,17.68,0,0,1-2.5.88,1.77,1.77,0,0,0-1.5,2.2,7,7,0,0,1,.11,1.2,3.4,3.4,0,0,1-.32.89c-.27-.27-.77-.54-.77-.82a21.17,21.17,0,0,1,.32-2.75c-1.49.55-2.92,1.16-4.4,1.58a6.52,6.52,0,0,1-2.53.13A1.81,1.81,0,0,0,87.43,87c-.28,1.09-.55,2.19-.89,3.26a5.11,5.11,0,0,1-2.77,3.31l.48-1-1.49,1-.08-.11,1.36-2-.16-.13L81.6,93.86l-.21-.18.42-.87L80,94.37l-.14-.12.59-1-1.21.89L79.12,94l.8-1.24-1,.5,2.25-2.85-1.51.31L81,89.24l-1.61.61-.2-.25,1.55-1.87-.06-1-1.44.21,0-.21,3.13-.8C79.68,85.31,76.8,84.73,74,84a5.52,5.52,0,0,0-3.63.31,21.15,21.15,0,0,1-4.47,1.43,24.5,24.5,0,0,1-4.2,0Z"/></g></g></svg>