<svg xmlns="http://www.w3.org/2000/svg" viewBox="0 0 104.66 104.66"><defs><style>.cls-1{fill:#d73327;}.cls-2{fill:#fff;}</style></defs><g id="Layer_2" data-name="Layer 2"><g id="Layer_1-2" data-name="Layer 1"><circle class="cls-1" cx="52.33" cy="52.33" r="52.33"/><path class="cls-2" d="M69.26,58.8l-.45-.23c-.71.88-1.36,1.7-2,2.51A7.68,7.68,0,0,0,65.7,62.3c-.83,1.59-1.64,3.21-2.32,4.87A2.62,2.62,0,0,0,63.91,70a19.2,19.2,0,0,0,1.87,1.84c-2.28-3.86-1.36-7.18,1.48-10.19l.3.08c-.29.86-.53,1.75-.88,2.59-.6,1.48-1.08,3-.45,4.55a9,9,0,0,0,1.29,2c.37.5.84.94,1.4,1.55-.56.2-.9.31-1.23.45s-.59.17-.68.35c-.57,1.19-1.68,1-2.66,1-.18,0-.46-.39-.56-.66-.29-.79-.52-1.6-.81-2.53l-.72.53a7.68,7.68,0,0,1-.6-4.13,6.59,6.59,0,0,0-.75-4.59l-.93.72-.19-.39c-1.28.07-2.46.12-3.63.21a2.75,2.75,0,0,0-1,.23c-.68.31-1.25.36-1.44-.32l-3.15-.34c-.37-.82-.63-.87-1.41-.2a3.12,3.12,0,0,1-.93.61c-.84.28-1.33.7-.84,1.73l-.26.19a4.1,4.1,0,0,1-1.08-.7c-.74-.9-1-.92-1.64,0-.18.24-.53.53-.78.51s-.39-.46-.56-.73S43,64,43,64.09c-2.25,0-4.39,0-6.49.21-1.38.16-2.85.48-3.28,2.36a11.82,11.82,0,0,1-1.63,2.93c-1.17,2-1.07,2.82.59,4.49.15.14.31.27.45.42.69.77.61,1.28-.35,1.57a20.86,20.86,0,0,1-2.53.5l-1.45-5.71A10.7,10.7,0,0,0,31,65.42a9.78,9.78,0,0,1,2.32-4.83c1.24-1.32,1.09-2.89,1.07-4.47a5,5,0,0,1,.09-1.1c.23-1,.51-2,.81-3.13l-1,.85V52c-1.47,1-2.89.61-4.27,0a3.26,3.26,0,0,1-1.81-2c1.14-.13,2.22-.2,3.28-.38a13.07,13.07,0,0,0,5.62-2.31,6.33,6.33,0,0,1,6-.88,21.26,21.26,0,0,0,10,1c1.4-.24,2.77-.69,4.16-1,1.2-.26,2.41-.43,3.61-.65a4.51,4.51,0,0,0,3.05-1.9l-1.06-.29,4.24-4.08-1.63-2.32,2.91.3a14.18,14.18,0,0,0,1.59-1.3,1.38,1.38,0,0,0,.31-1c-.43-2.1-.91-4.18-1.38-6.27a3.27,3.27,0,0,1-.1-.78A29.55,29.55,0,0,1,72,34.85a7.81,7.81,0,0,0,2.1,2.75c.22.24.9,0,1.55,0a6.17,6.17,0,0,0-.28,4.73,9.41,9.41,0,0,0,.71,2c.33.63.61,1.27,0,1.75a1.37,1.37,0,0,1-2.06,0l-.93,2.64c-.92,0-1-1-1.43-1.64a6.32,6.32,0,0,1-.52-1.75,3.44,3.44,0,0,0-.81,2.86,18.5,18.5,0,0,1-.22,7.11C70,56.47,69.58,57.6,69.26,58.8Z"/><path class="cls-2" d="M40.4,71.7A15.33,15.33,0,0,0,39.66,69,17.89,17.89,0,0,0,38,66.61c-.36-.52-.71-1-1.2-1.77,1,0,1.74.14,2.43.11s1.41-.2,2.34-.34c-1.27,1.22-.76,2.29,0,3.34a1.25,1.25,0,0,1,.26.44c.31,1.65,1.6,2.41,2.86,3.24a7.6,7.6,0,0,1,1.36,1.55l-.1.39c-.91.13-1.82.3-2.73.34a1.08,1.08,0,0,1-.76-.62C42.12,72.27,41.66,71.47,40.4,71.7Z"/><path class="cls-2" d="M72.35,29.43a12.36,12.36,0,0,1,1.35,7,1.23,1.23,0,0,1-.92-1.36,20.93,20.93,0,0,0-.09-2.85C72.61,31.31,72.47,30.37,72.35,29.43Z"/></g></g></svg>