<svg xmlns="http://www.w3.org/2000/svg" viewBox="0 0 68 68"><defs><style>.cls-1{fill:#fff;}</style></defs><g id="Layer_2" data-name="Layer 2"><g id="Layer_1-2" data-name="Layer 1"><path class="cls-1" d="M0,36.11V31.86c.05-.44.11-.87.16-1.3a33.1,33.1,0,0,1,8.29-19A33.2,33.2,0,0,1,37.41.16,32.27,32.27,0,0,1,56.47,8.49,33.38,33.38,0,0,1,68,32.54,32.26,32.26,0,0,1,64,50,33.52,33.52,0,0,1,39.86,67.47c-1.28.24-2.58.36-3.87.53H32l-1.44-.16a33.57,33.57,0,0,1-18.9-8.24A33.46,33.46,0,0,1,.37,38.92C.23,38,.12,37.05,0,36.11Zm34,19v.23c3.45-.12,6.9-.14,10.34-.38a11.18,11.18,0,0,0,8.08-4.05,12.1,12.1,0,0,0,2.7-7.68c.13-5.38.12-10.76.11-16.14a29.81,29.81,0,0,0-.35-4.42,11,11,0,0,0-4.46-7.49,12.66,12.66,0,0,0-7.43-2.3c-4.95-.11-9.91-.14-14.86-.12a40,40,0,0,0-5.36.38,10.89,10.89,0,0,0-7.53,4.49A12.6,12.6,0,0,0,12.91,25c-.11,5-.12,10-.13,14.94A42.5,42.5,0,0,0,13,44.31a11.5,11.5,0,0,0,4.09,8.07,12.61,12.61,0,0,0,8,2.71C28,55.17,31,55.11,34,55.11Z"/><path class="cls-1" d="M34,16.5c3,.07,6,.1,9.08.23a8.23,8.23,0,0,1,6.18,2.6,8.14,8.14,0,0,1,1.94,5.39c.06,6.17.08,12.35,0,18.52a7.69,7.69,0,0,1-3.16,6.5,8.24,8.24,0,0,1-4.75,1.48c-6.2.05-12.39.08-18.58,0A7.6,7.6,0,0,1,18.24,48a8.28,8.28,0,0,1-1.47-4.82c-.06-6.15-.08-12.3,0-18.46A7.66,7.66,0,0,1,20,18.21a9,9,0,0,1,5-1.49C28,16.61,31,16.57,34,16.5Zm0,28.39A10.91,10.91,0,1,0,23.1,34,10.9,10.9,0,0,0,34,44.89Zm11.33-24.8a2.58,2.58,0,0,0-2.57,2.51,2.55,2.55,0,1,0,5.1,0A2.57,2.57,0,0,0,45.36,20.09Z"/><path class="cls-1" d="M34,26.91A7.07,7.07,0,1,1,26.93,34,7,7,0,0,1,34,26.91Z"/></g></g></svg>