<svg xmlns="http://www.w3.org/2000/svg" viewBox="0 0 68 68"><defs><style>.cls-1{fill:#fff;}</style></defs><g id="Layer_2" data-name="Layer 2"><g id="Layer_1-2" data-name="Layer 1"><path class="cls-1" d="M0,35.91V32.06C.12,31,.22,30,.38,28.92A32.44,32.44,0,0,1,8.29,11.79c8.9-9.88,20-13.59,33-11A32.33,32.33,0,0,1,60.22,12.36a33.28,33.28,0,0,1,7.47,17.15,33.2,33.2,0,0,1-1.33,14.88A33.57,33.57,0,0,1,51.92,62.88a32.76,32.76,0,0,1-13.36,4.8L35.93,68H32.07a4.17,4.17,0,0,0-.6-.1,32.36,32.36,0,0,1-7.87-1.53A33.69,33.69,0,0,1,5.12,51.92,32.8,32.8,0,0,1,.32,38.55C.21,37.67.11,36.79,0,35.91ZM21.3,14.33c-.71.46-1.37.86-2,1.29A7,7,0,0,0,16,22a29.64,29.64,0,0,0,1.75,9.19A58.87,58.87,0,0,0,28.19,49.73a31.22,31.22,0,0,0,7.8,7c3.23,1.95,6,1.45,9.35-.76L38.78,44.62A16.12,16.12,0,0,1,36.3,45a6.15,6.15,0,0,1-4.11-1.81A18.81,18.81,0,0,1,26,32c-.39-2.3-.18-4.52,2-6.06ZM52.09,52.25a5.44,5.44,0,0,0-.3-.83Q48.7,46.05,45.6,40.69a1.5,1.5,0,0,0-2.19-.57c-1,.59-2.1,1.19-3.13,1.81a1.5,1.5,0,0,0-.59,2.14q3.11,5.41,6.25,10.82a1.48,1.48,0,0,0,2.06.58c1.12-.62,2.23-1.27,3.33-1.92A1.6,1.6,0,0,0,52.09,52.25ZM27,10a5.64,5.64,0,0,0-.92.35c-1,.54-1.93,1.11-2.89,1.67a1.57,1.57,0,0,0-.65,2.42l3,5.14c1,1.8,2.07,3.6,3.12,5.39a1.48,1.48,0,0,0,2.05.72c1.16-.63,2.31-1.29,3.43-2a1.47,1.47,0,0,0,.49-2c-.17-.34-.37-.66-.55-1q-2.8-4.85-5.6-9.7A1.85,1.85,0,0,0,27,10Z"/></g></g></svg>