<svg xmlns="http://www.w3.org/2000/svg" viewBox="0 0 104.66 104.66"><defs><style>.cls-1{fill:#d73327;}.cls-2{fill:#fff;}</style></defs><g id="Layer_2" data-name="Layer 2"><g id="Layer_1-2" data-name="Layer 1"><circle class="cls-1" cx="52.33" cy="52.33" r="52.33"/><path class="cls-2" d="M62.6,68.21l-1.09-.06.09.2a3.56,3.56,0,0,1-.57.47c-.47.26-1,.47-1.46.7l0,.15c1.15,0,2.3,0,3.46,0a20.48,20.48,0,0,1,2.34.18c.72.11,1,.51,1.14,1.39l-1-.62v.22a5,5,0,0,1-.94.18c-1.73,0-3.46,0-5.2,0,0,0-.1.06-.3.18,1,.53,2,1,2.94,1.48a6.21,6.21,0,0,1,1.35,1c.16.16.14.51.21.77l-.21.07a3.64,3.64,0,0,0-.31-.51c-.21-.25-.37-.63-.79-.2-.1.09-.45,0-.64-.08-1.16-.57-2.3-1.17-3.45-1.76a2.14,2.14,0,0,0-.54-.18c-1-.16-1-.16-1.46-.63a8.26,8.26,0,0,0-1,.63,3,3,0,0,0-.45.68,1.29,1.29,0,0,1,.23-1.5.93.93,0,0,0-.14-1.44c-1.5-1.4-3-2.81-4.51-4.2a.54.54,0,0,0-.4-.13A5.6,5.6,0,0,1,46.41,64a2.58,2.58,0,0,0-1.34-.11c-.56,0-1.12.17-1.68.2a1.09,1.09,0,0,0-1.15,1c-.19,1.35-.39,2.69-.48,4-.11,1.53.81,2.18,2.33,1.82a5.15,5.15,0,0,1,1.75-.08,3.77,3.77,0,0,1,1.09.56l-.11.24L46,71.42l0,.17a7.37,7.37,0,0,1-1.09.3,7.77,7.77,0,0,1-1.18,0l0,.21c.69.16,1.38.37,2.08.47s1.53.06,2.28.14c.6.06,1,.45,1.2,1.16l-1.16-.56c-.44.69-.69.75-1.62.5l-4.34-1.13c-.18,0-.38,0-.66-.08a3.08,3.08,0,0,0,1.08,1.71,1.94,1.94,0,0,1,.55,2.41c-.12-.25-.24-.45-.32-.66s-.16-.69-.68-.49c-.1,0-.32-.16-.43-.29a11.6,11.6,0,0,1-.77-1.07,6.31,6.31,0,0,1-.39-.78c-.2-.46-.39-.91-.57-1.37a3.22,3.22,0,0,1-.09-.53l-1.17.08a2.26,2.26,0,0,1,.45-.73,2.37,2.37,0,0,0,.93-1.73c.14-1.71.38-3.41.5-5.12a2.77,2.77,0,0,0-.5-2,.92.92,0,0,0-.27-.25,11.38,11.38,0,0,0-1.71-.94,12.42,12.42,0,0,0-2.62-.66,4.22,4.22,0,0,0-4,1.59,2,2,0,0,1-2.29.83c-.47-.14-1.26-.09-1.37-.35a3.53,3.53,0,0,1-.08-1.86,36.89,36.89,0,0,1,2-7.36A24.44,24.44,0,0,1,35.6,44a32,32,0,0,1,9.58-6.18,37.58,37.58,0,0,1,9.12-2.25,4.13,4.13,0,0,0,1.12-.23,7.65,7.65,0,0,1,4.44-.24c2,.34,2.83-.17,3.64-2A5.11,5.11,0,0,1,64.21,32c.61-.73,1.25-1.44,1.9-2.14a5.51,5.51,0,0,1,8.91.9c.44.8,1,1.47,1.48,2.21a8.76,8.76,0,0,1,.5,1,7.9,7.9,0,0,1-1-.17A3,3,0,0,0,72.82,35a5,5,0,0,1-.91.88A2.11,2.11,0,0,0,71,38.12a12.19,12.19,0,0,1-.13,3.47,16.31,16.31,0,0,1-1.41,3.25c-.46.92-1,1.82-1.51,2.7a36.25,36.25,0,0,1-5.23,6.55c-1,1-2,2.14-3.12,3.1C58,58.65,56.15,60,54.48,61.44a13.75,13.75,0,0,0-1.95,2.39,1,1,0,0,0,0,.92A17.38,17.38,0,0,0,57,69a1.81,1.81,0,0,0,1.83,0c.66-.31,1.27-.69,1.9-1A1.38,1.38,0,0,1,62.6,68.21Z"/></g></g></svg>