<svg xmlns="http://www.w3.org/2000/svg" viewBox="0 0 150 150"><defs><style>.cls-1{fill:#d73327;}.cls-2{fill:#fff;}</style></defs><g id="Layer_2" data-name="Layer 2"><g id="Layer_1-2" data-name="Layer 1"><circle class="cls-1" cx="75" cy="75" r="75"/><path class="cls-2" d="M88.3,50.85c-2.72-1-3.92-.32-4.42,2.72a21.15,21.15,0,0,0,1.76,11.55c1.14,2.77,1,4-1,6.55-2.69-.75-5.4-1.58-8.14-2.24-5.71-1.37-11.29-.4-16.67,1.48-4.78,1.67-7,5.68-8.3,10.31-.49,1.78-.81,3.61-1.25,5.61L48.76,85.2c-1.25.94-1.95,4-1.24,6,.56,1.57,1.33,3,3.3,3.16.21,0,.47.27.59.48a3.92,3.92,0,0,0,3.72,2,3.44,3.44,0,0,0,3.32,2.75c4.52.44,9,.83,13.57,1.1,2,.12,2.38-.69,1.64-2.52a3.76,3.76,0,0,0-3.83-2.48c-2.36,0-4.72.27-7.07.43a1.53,1.53,0,0,1-1-.16,16,16,0,0,1,2.52-.54A1.89,1.89,0,0,0,66,94.31c1.87-3.26,3.16-6.67,2.21-10.47a29.26,29.26,0,0,0-1.71-4.18c3.18,2.44,3.15,7-.2,15.42,1.07,0,2.16,0,3.24,0a4.41,4.41,0,0,1,1.9.34c3.2,1.81,6.16.27,9.19-.52a11.77,11.77,0,0,0,1.2-.52c1.12,1.31,2.21,2.69,3.41,4a3.49,3.49,0,0,0,1.88,1.21c2.73.19,5.47.2,8.21.19a4.59,4.59,0,0,0,1.57-.66c-.32-.52-.51-1.29-1-1.52a7,7,0,0,0-2.85-.76c-2.39-.07-3.43-.72-4.19-2.88-.23-.65-.17-1,.55-1.26,2.94-.88,4.68-3,5.89-5.7a6.25,6.25,0,0,1,5.5-4c1.35-.11,2.36-2.73,1.75-4.22-.85-2.09-1.62-4.2-2.42-6.31s-2.78-3.16-4.57-4.26a9.06,9.06,0,0,0-2.89-.92c-1-.21-1.44-.74-1.31-1.74a7.93,7.93,0,0,1,.14-1c1-5.07.41-9.76-3.27-13.72Z"/><path class="cls-2" d="M88.26,50.8c.86,1,2,1.78,2.53,2.9a16.45,16.45,0,0,1,1.26,10.84c-.44,1.78-.12,2.11,1.89,2.15-1.12-1-1-2.06-.74-3.32a20.39,20.39,0,0,0-.42-10.71,7.48,7.48,0,0,0-1.52-2.6c-1.16-1.29-2.41-.9-3,.79Z"/></g></g></svg>